<mxfile host="app.diagrams.net" modified="2021-06-14T04:38:47.826Z" agent="5.0 (Windows NT 10.0; Win64; x64) AppleWebKit/537.36 (KHTML, like Gecko) Chrome/91.0.4472.77 Safari/537.36 Edg/91.0.864.41" etag="Pi3ghYJY-HpcndBbgEag" version="14.7.6" type="github">
  <diagram id="kgpKYQtTHZ0yAKxKKP6v" name="Page-1">
    <mxGraphModel dx="652" dy="390" grid="1" gridSize="10" guides="1" tooltips="1" connect="1" arrows="1" fold="1" page="1" pageScale="1" pageWidth="850" pageHeight="1100" math="0" shadow="0">
      <root>
        <mxCell id="0" />
        <mxCell id="1" parent="0" />
        <mxCell id="3nuBFxr9cyL0pnOWT2aG-1" value="Controller" style="shape=umlLifeline;perimeter=lifelinePerimeter;container=1;collapsible=0;recursiveResize=0;rounded=0;shadow=0;strokeWidth=1;" parent="1" vertex="1">
          <mxGeometry x="190" y="80" width="100" height="440" as="geometry" />
        </mxCell>
        <mxCell id="3nuBFxr9cyL0pnOWT2aG-5" value="Service" style="shape=umlLifeline;perimeter=lifelinePerimeter;container=1;collapsible=0;recursiveResize=0;rounded=0;shadow=0;strokeWidth=1;" parent="1" vertex="1">
          <mxGeometry x="350" y="80" width="100" height="440" as="geometry" />
        </mxCell>
        <mxCell id="MR9b2Nu-F_1hZQa284Ft-1" value="LOGIN" style="text;html=1;strokeColor=none;fillColor=none;align=center;verticalAlign=middle;whiteSpace=wrap;rounded=0;" vertex="1" parent="1">
          <mxGeometry x="10" y="80" width="60" height="40" as="geometry" />
        </mxCell>
        <mxCell id="MR9b2Nu-F_1hZQa284Ft-2" value="Database" style="shape=umlLifeline;perimeter=lifelinePerimeter;container=1;collapsible=0;recursiveResize=0;rounded=0;shadow=0;strokeWidth=1;" vertex="1" parent="1">
          <mxGeometry x="510" y="80" width="100" height="440" as="geometry" />
        </mxCell>
        <mxCell id="MR9b2Nu-F_1hZQa284Ft-5" value="" style="shape=umlLifeline;participant=umlActor;perimeter=lifelinePerimeter;whiteSpace=wrap;html=1;container=1;collapsible=0;recursiveResize=0;verticalAlign=top;spacingTop=36;outlineConnect=0;" vertex="1" parent="1">
          <mxGeometry x="120" y="80" width="20" height="440" as="geometry" />
        </mxCell>
        <mxCell id="MR9b2Nu-F_1hZQa284Ft-6" value="login request" style="html=1;verticalAlign=bottom;endArrow=block;" edge="1" parent="1" source="MR9b2Nu-F_1hZQa284Ft-5">
          <mxGeometry width="80" relative="1" as="geometry">
            <mxPoint x="230" y="240" as="sourcePoint" />
            <mxPoint x="237" y="160" as="targetPoint" />
          </mxGeometry>
        </mxCell>
        <mxCell id="MR9b2Nu-F_1hZQa284Ft-7" value="call login function" style="html=1;verticalAlign=bottom;endArrow=block;" edge="1" parent="1" source="3nuBFxr9cyL0pnOWT2aG-1">
          <mxGeometry width="80" relative="1" as="geometry">
            <mxPoint x="259.9966666666667" y="180" as="sourcePoint" />
            <mxPoint x="390" y="175" as="targetPoint" />
          </mxGeometry>
        </mxCell>
        <mxCell id="MR9b2Nu-F_1hZQa284Ft-8" value="find user" style="html=1;verticalAlign=bottom;endArrow=block;" edge="1" parent="1" source="3nuBFxr9cyL0pnOWT2aG-5">
          <mxGeometry width="80" relative="1" as="geometry">
            <mxPoint x="402.66666666666674" y="170" as="sourcePoint" />
            <mxPoint x="550" y="190" as="targetPoint" />
          </mxGeometry>
        </mxCell>
        <mxCell id="MR9b2Nu-F_1hZQa284Ft-9" value="valid user" style="html=1;verticalAlign=bottom;endArrow=open;dashed=1;endSize=8;entryX=0.53;entryY=0.565;entryDx=0;entryDy=0;entryPerimeter=0;" edge="1" parent="1">
          <mxGeometry relative="1" as="geometry">
            <mxPoint x="399.5" y="410" as="sourcePoint" />
            <mxPoint x="243" y="410" as="targetPoint" />
          </mxGeometry>
        </mxCell>
        <mxCell id="MR9b2Nu-F_1hZQa284Ft-10" value="found user" style="html=1;verticalAlign=bottom;endArrow=open;dashed=1;endSize=8;entryX=0.51;entryY=0.5;entryDx=0;entryDy=0;entryPerimeter=0;" edge="1" parent="1" source="MR9b2Nu-F_1hZQa284Ft-2" target="3nuBFxr9cyL0pnOWT2aG-5">
          <mxGeometry relative="1" as="geometry">
            <mxPoint x="529.9999999999999" y="220" as="sourcePoint" />
            <mxPoint x="401" y="216" as="targetPoint" />
          </mxGeometry>
        </mxCell>
        <mxCell id="MR9b2Nu-F_1hZQa284Ft-11" value="valid user" style="html=1;verticalAlign=bottom;endArrow=open;dashed=1;endSize=8;exitX=0.458;exitY=0.622;exitDx=0;exitDy=0;exitPerimeter=0;" edge="1" parent="1">
          <mxGeometry relative="1" as="geometry">
            <mxPoint x="235.79999999999995" y="427.1" as="sourcePoint" />
            <mxPoint x="129.66666666666674" y="427.1" as="targetPoint" />
          </mxGeometry>
        </mxCell>
        <mxCell id="MR9b2Nu-F_1hZQa284Ft-15" value="invalid user" style="html=1;verticalAlign=bottom;endArrow=open;dashed=1;endSize=8;entryX=0.53;entryY=0.565;entryDx=0;entryDy=0;entryPerimeter=0;" edge="1" parent="1">
          <mxGeometry relative="1" as="geometry">
            <mxPoint x="399.83" y="350" as="sourcePoint" />
            <mxPoint x="243.33" y="350" as="targetPoint" />
          </mxGeometry>
        </mxCell>
        <mxCell id="MR9b2Nu-F_1hZQa284Ft-16" value="invalid user" style="html=1;verticalAlign=bottom;endArrow=open;dashed=1;endSize=8;exitX=0.458;exitY=0.622;exitDx=0;exitDy=0;exitPerimeter=0;" edge="1" parent="1">
          <mxGeometry relative="1" as="geometry">
            <mxPoint x="236.12999999999997" y="367.1" as="sourcePoint" />
            <mxPoint x="129.99666666666675" y="367.1" as="targetPoint" />
          </mxGeometry>
        </mxCell>
        <mxCell id="MR9b2Nu-F_1hZQa284Ft-17" value="not found" style="html=1;verticalAlign=bottom;endArrow=open;dashed=1;endSize=8;entryX=0.51;entryY=0.5;entryDx=0;entryDy=0;entryPerimeter=0;" edge="1" parent="1">
          <mxGeometry relative="1" as="geometry">
            <mxPoint x="558.5" y="230" as="sourcePoint" />
            <mxPoint x="400" y="230" as="targetPoint" />
          </mxGeometry>
        </mxCell>
        <mxCell id="MR9b2Nu-F_1hZQa284Ft-19" value="not found" style="html=1;verticalAlign=bottom;endArrow=open;dashed=1;endSize=8;entryX=0.53;entryY=0.565;entryDx=0;entryDy=0;entryPerimeter=0;" edge="1" parent="1">
          <mxGeometry relative="1" as="geometry">
            <mxPoint x="399.8299999999999" y="250" as="sourcePoint" />
            <mxPoint x="243.33000000000004" y="250" as="targetPoint" />
          </mxGeometry>
        </mxCell>
        <mxCell id="MR9b2Nu-F_1hZQa284Ft-20" value="not found" style="html=1;verticalAlign=bottom;endArrow=open;dashed=1;endSize=8;exitX=0.458;exitY=0.622;exitDx=0;exitDy=0;exitPerimeter=0;" edge="1" parent="1">
          <mxGeometry relative="1" as="geometry">
            <mxPoint x="236.12999999999988" y="267.1" as="sourcePoint" />
            <mxPoint x="129.99666666666678" y="267.1" as="targetPoint" />
          </mxGeometry>
        </mxCell>
        <mxCell id="MR9b2Nu-F_1hZQa284Ft-27" value="alt" style="shape=umlFrame;whiteSpace=wrap;html=1;" vertex="1" parent="1">
          <mxGeometry x="30" y="210" width="560" height="280" as="geometry" />
        </mxCell>
        <mxCell id="MR9b2Nu-F_1hZQa284Ft-28" value="alt" style="shape=umlFrame;whiteSpace=wrap;html=1;" vertex="1" parent="1">
          <mxGeometry x="50" y="310" width="380" height="140" as="geometry" />
        </mxCell>
        <mxCell id="MR9b2Nu-F_1hZQa284Ft-29" value="" style="html=1;points=[];perimeter=orthogonalPerimeter;" vertex="1" parent="1">
          <mxGeometry x="235" y="150" width="10" height="290" as="geometry" />
        </mxCell>
        <mxCell id="MR9b2Nu-F_1hZQa284Ft-30" value="" style="html=1;points=[];perimeter=orthogonalPerimeter;" vertex="1" parent="1">
          <mxGeometry x="395" y="165" width="10" height="255" as="geometry" />
        </mxCell>
        <mxCell id="MR9b2Nu-F_1hZQa284Ft-31" value="" style="html=1;points=[];perimeter=orthogonalPerimeter;" vertex="1" parent="1">
          <mxGeometry x="555" y="180" width="10" height="140" as="geometry" />
        </mxCell>
        <mxCell id="MR9b2Nu-F_1hZQa284Ft-33" value="[not found]" style="text;html=1;strokeColor=none;fillColor=none;align=center;verticalAlign=middle;whiteSpace=wrap;rounded=0;" vertex="1" parent="1">
          <mxGeometry x="40" y="250" width="60" height="20" as="geometry" />
        </mxCell>
        <mxCell id="MR9b2Nu-F_1hZQa284Ft-34" value="[found]" style="text;html=1;strokeColor=none;fillColor=none;align=center;verticalAlign=middle;whiteSpace=wrap;rounded=0;" vertex="1" parent="1">
          <mxGeometry x="40" y="282.5" width="60" height="20" as="geometry" />
        </mxCell>
        <mxCell id="MR9b2Nu-F_1hZQa284Ft-35" value="[invalid user]" style="text;html=1;strokeColor=none;fillColor=none;align=center;verticalAlign=middle;whiteSpace=wrap;rounded=0;" vertex="1" parent="1">
          <mxGeometry x="50" y="360" width="70" height="20" as="geometry" />
        </mxCell>
        <mxCell id="MR9b2Nu-F_1hZQa284Ft-37" value="[valid user]" style="text;html=1;strokeColor=none;fillColor=none;align=center;verticalAlign=middle;whiteSpace=wrap;rounded=0;" vertex="1" parent="1">
          <mxGeometry x="50" y="400" width="70" height="20" as="geometry" />
        </mxCell>
        <mxCell id="MR9b2Nu-F_1hZQa284Ft-38" value="" style="endArrow=none;dashed=1;html=1;" edge="1" parent="1">
          <mxGeometry width="50" height="50" relative="1" as="geometry">
            <mxPoint x="29" y="280" as="sourcePoint" />
            <mxPoint x="590" y="279" as="targetPoint" />
          </mxGeometry>
        </mxCell>
        <mxCell id="MR9b2Nu-F_1hZQa284Ft-39" value="" style="endArrow=none;dashed=1;html=1;" edge="1" parent="1">
          <mxGeometry width="50" height="50" relative="1" as="geometry">
            <mxPoint x="50" y="390" as="sourcePoint" />
            <mxPoint x="430" y="390" as="targetPoint" />
          </mxGeometry>
        </mxCell>
      </root>
    </mxGraphModel>
  </diagram>
</mxfile>
